<svg width="480" height="189" viewBox="0 0 480 189" fill="none" xmlns="http://www.w3.org/2000/svg">
<path d="M51.8794 5.40956V22.6623H35.6449V82.9012H16.2361V22.6623H0V5.40956H16.2361V5.26392H35.6449V5.40956H51.8794Z" fill="black"/>
<path d="M115.485 48.6246V83.0272H97.1543V55.4953C97.1543 47.0037 94.2118 43.9739 88.9451 43.9739C81.3193 43.9739 79.6327 50.01 79.6327 54.3493V83.0272H61.3021V0H79.6327V36.7337C79.6327 36.7337 84.103 29.1752 95.8551 29.1752C106.319 29.1752 115.485 35.1418 115.485 48.6246Z" fill="black"/>
<path d="M165.598 63.8441H183.12C183.12 82.2931 163.539 84.9457 155.44 84.9457C147.342 84.9457 126.704 79.8884 126.704 56.9107C126.704 33.9331 144.528 28.3359 155.247 28.3359C171.808 28.3359 179.562 36.8767 182.139 48.996C182.862 52.3608 183.185 55.9943 183.185 59.7892H145.025C145.025 68.4264 149.542 71.8125 156.044 71.8125C162.545 71.8125 165.598 68.1576 165.598 63.8441ZM145.465 48.9961H166.007L165.888 48.921C165.888 45.0388 162.955 40.359 155.742 40.359C148.54 40.359 145.466 45.5137 145.465 48.9961Z" fill="black"/>
<path d="M256.291 65.7054H288.472V82.9583H236.593V82.9012H223.49L259.073 22.6623H229.46V5.40956H269.264L269.35 5.26392H291.994L256.291 65.7054Z" fill="black"/>
<path d="M337.632 63.8441H355.155C355.155 82.2931 335.574 84.9457 327.475 84.9457C319.377 84.9457 298.739 79.8884 298.739 56.9107C298.739 33.9331 316.563 28.3359 327.282 28.3359C343.843 28.3359 351.597 36.8767 354.174 48.996C354.896 52.3608 355.22 55.9943 355.22 59.7892H317.059C317.059 68.4264 321.577 71.8125 328.079 71.8125C334.58 71.8125 337.632 68.1576 337.632 63.8441ZM317.5 48.9961H338.041L337.922 48.921C337.922 45.0388 334.99 40.359 327.777 40.359C320.574 40.359 317.501 45.5137 317.5 48.9961Z" fill="black"/>
<path d="M367.528 82.9854V30.2625H385.858V82.9854H367.528Z" fill="black"/>
<path d="M389.588 40.7229C389.588 34.9344 394.136 30.24 399.746 30.24C405.356 30.24 409.903 34.9344 409.903 40.7229C409.903 46.5128 405.356 51.206 399.746 51.206C394.136 51.206 389.588 46.5128 389.588 40.7229Z" fill="#C63818"/>
<path d="M479.526 56.6498C479.526 72.2874 467.339 85.1059 448.678 85.1059C430.017 85.1059 417.831 72.2874 417.831 56.6498C417.831 41.012 430.017 28.3359 448.678 28.3359C467.339 28.3359 479.526 41.012 479.526 56.6498ZM460.392 56.7203C460.392 49.9561 455.148 44.4722 448.678 44.4722C442.209 44.4722 436.964 49.9561 436.964 56.7203C436.964 63.4858 442.209 68.9697 448.678 68.9697C455.148 68.9697 460.392 63.4858 460.392 56.7203Z" fill="black"/>
<path d="M51.8794 109.15V126.402H35.6449V186.641H16.2361V126.402H0V109.15H16.2361V109.004H35.6449V109.15H51.8794Z" fill="black"/>
<path d="M93.5629 133.943H111.894V186.778H93.5629V182.208C89.1643 186.266 83.5089 188.708 77.3395 188.708C63.3169 188.708 51.9501 176.106 51.9501 160.56C51.9501 145.014 63.3169 132.412 77.3395 132.412C83.5089 132.412 89.1643 134.855 93.5629 138.911V133.943ZM93.5629 160.56C93.5629 153.87 88.8113 148.445 82.3954 148.445C75.9795 148.445 70.7789 153.87 70.7789 160.56C70.7789 167.252 75.9795 172.676 82.3954 172.676C88.8113 172.676 93.5629 167.25 93.5629 160.56Z" fill="black"/>
<path d="M186.045 160.548C186.045 176.094 174.677 188.696 160.656 188.696C154.485 188.696 148.832 186.254 144.431 182.197V186.767H126.101V103.74H144.431V138.899C148.832 134.842 154.485 132.4 160.656 132.4C174.677 132.4 186.044 145.002 186.045 160.548ZM167.216 160.548C167.216 153.858 162.016 148.433 155.6 148.433C149.184 148.433 144.431 153.858 144.431 160.548C144.431 167.239 149.184 172.664 155.6 172.664C162.015 172.664 167.216 167.238 167.216 160.548Z" fill="black"/>
<path d="M197.899 186.767V103.74H216.23V186.767H197.899Z" fill="black"/>
<path d="M266.976 167.584H284.499C284.499 186.033 264.917 188.686 256.819 188.686C248.721 188.686 228.083 183.628 228.083 160.651C228.083 137.673 245.907 132.076 256.625 132.076C273.187 132.076 280.94 140.617 283.518 152.736C284.24 156.101 284.564 159.734 284.564 163.529H246.403C246.403 172.166 250.921 175.552 257.423 175.552C263.924 175.552 266.976 171.898 266.976 167.584ZM246.843 152.736H267.385L267.266 152.661C267.266 148.779 264.334 144.099 257.121 144.099C249.918 144.099 246.845 149.254 246.843 152.736Z" fill="black"/>
</svg>
